#!OML:ASF H:\Martial Arts Walks\Project 1\Capture day 1\Session 1\male.ASF
:FULLY-SPECIFIED
:DEGREES
2602
root 2.91951 13.5087 -24.4388 179.591 31.225 -177.022
lowerback 17.4582 -0.391475 -3.88541
upperback -0.649423 -0.72275 4.26375
thorax -10.4571 0.0762787 7.1193
lowerneck 6.08517 -15.516 -15.565
upperneck -0.705845 -21.7179 15.6033
head 2.23467 -11.0339 6.41931
rclavicle -5.53118e-014 1.82882e-014
rhumerus -0.387901 -19.4853 -60.7637
rradius 93.4279
rwrist 41.905
rhand -38.1152 -57.5413
rfingers 7.12502
rthumb -11.1504 -87.225
lclavicle -5.53118e-014 1.82882e-014
lhumerus -58.5771 -34.0613 114.727
lradius 111.053
lwrist 86.5637
lhand 28.5469 753.806
lfingers 7.12502
lthumb 52.3959 -666.327
rfemur -51.8611 -33.7268 6.6758
rtibia 67.712
rfoot -18.7256 7.36641
rtoes -45.0773
lfemur -32.8244 27.4926 -7.12536
ltibia 88.0508
lfoot -39.6073 21.2402
ltoes -12.3022
2603
root 2.95185 13.4742 -24.4399 179.873 31.1462 -177.105
lowerback 17.3944 -0.48092 -3.92435
upperback -0.709022 -0.85764 4.22444
thorax -10.4669 0.0123218 7.13238
lowerneck 6.02722 -15.464 -15.3869
upperneck -0.889344 -21.6149 15.6395
head 2.15943 -10.9821 6.42228
rclavicle 7.65321e-014 8.74653e-015
rhumerus -0.0342142 -20.173 -61.2852
rradius 93.5678
rwrist 41.276
rhand -38.1538 -58.0203
rfingers 7.12502
rthumb -11.1876 -87.7021
lclavicle 7.65321e-014 8.74653e-015
lhumerus -58.3363 -33.7988 114.473
lradius 111.207
lwrist 86.5577
lhand 26.8245 757.764
lfingers 7.12502
lthumb 50.8307 -661.461
rfemur -52.6598 -34.246 6.97375
rtibia 68.325
rfoot -19.1514 7.34544
rtoes -45.319
lfemur -33.3159 27.7981 -7.10361
ltibia 88.4228
lfoot -39.7935 20.977
ltoes -12.6323
2604
root 2.98322 13.4443 -24.4448 180.074 31.1013 -177.06
lowerback 17.3887 -0.550104 -3.84139
upperback -0.729797 -0.935522 4.20352
thorax -10.4764 -0.0297835 7.08088
lowerneck 6.09435 -15.4249 -15.3403
upperneck -1.02245 -21.5581 15.7785
head 2.11264 -10.9587 6.47395
rclavicle -5.59082e-014 -7.15625e-015
rhumerus 0.192981 -20.7892 -61.6127
rradius 93.528
rwrist 40.6954
rhand -37.9785 -57.1517
rfingers 7.12502
rthumb -11.0185 -86.8425
lclavicle -5.59082e-014 -7.15625e-015
lhumerus -58.4212 -33.7763 114.616
lradius 111.141
lwrist 86.0008
lhand 26.8507 758.263
lfingers 7.12502
lthumb 50.8546 -660.975
rfemur -53.1809 -34.6781 7.27992
rtibia 68.8381
rfoot -19.5664 7.32324
rtoes -45.4875
lfemur -33.5474 28.1469 -6.85173
ltibia 88.7353
lfoot -39.9747 20.6717
ltoes -12.8944
2605
root 3.01183 13.4185 -24.4466 180.313 31.0694 -176.943
lowerback 17.337 -0.624437 -3.7229
upperback -0.720676 -1.01027 4.1885
thorax -10.4271 -0.0747429 7.01088
lowerneck 6.13733 -15.4155 -15.2418
upperneck -1.07941 -21.5393 15.8934
head 2.08953 -10.9523 6.503
rclavicle 6.6742e-014 8.74653e-015
rhumerus 0.44338 -21.272 -61.9483
rradius 93.2855
rwrist 40.3913
rhand -38.0218 -56.2443
rfingers 7.12502
rthumb -11.0603 -85.9329
lclavicle 6.6742e-014 8.74653e-015
lhumerus -58.5411 -33.9296 114.719
lradius 111.027
lwrist 85.3342
lhand 27.3466 760.202
lfingers 7.12502
lthumb 51.3063 -659.289
rfemur -53.6859 -35.101 7.68011
rtibia 69.2659
rfoot -20.0157 7.27866
rtoes -45.7014
lfemur -33.7966 28.5292 -6.54804
ltibia 89.0223
lfoot -40.1615 20.3188
ltoes -13.2511
2606
root 3.0396 13.3959 -24.4518 180.351 31.1036 -176.98
lowerback 17.3568 -0.636663 -3.77445
upperback -0.695542 -1.0436 4.14778
thorax -10.405 -0.091233 7.00341
lowerneck 6.21989 -15.4188 -15.199
upperneck -1.03955 -21.5527 15.9675
head 2.09463 -10.9624 6.5232
rclavicle 7.95139e-016 1.27222e-014
rhumerus 0.593946 -21.6147 -62.1045
rradius 92.9745
rwrist 40.2227
rhand -38.0467 -56.8994
rfingers 7.12502
rthumb -11.0843 -86.5867
lclavicle 7.95139e-016 1.27222e-014
lhumerus -58.7839 -34.1159 114.936
lradius 110.859
lwrist 84.7427
lhand 28.1293 758.732
lfingers 7.12502
lthumb 52.0175 -661.173
rfemur -54.0198 -35.4985 7.8583
rtibia 69.6514
rfoot -20.4847 7.29945
rtoes -45.8943
lfemur -33.7775 28.9003 -6.32399
ltibia 89.2317
lfoot -40.3442 20.0549
ltoes -13.4935
2607
root 3.06502 13.3762 -24.4538 180.475 31.1119 -176.832
lowerback 17.4064 -0.696943 -3.77044
upperback -0.655451 -1.11705 4.18224
thorax -10.3769 -0.125775 7.05889
lowerneck 6.23087 -15.4031 -15.0893
upperneck -0.962001 -21.5291 15.9788
head 2.10195 -10.9503 6.51357
rclavicle -7.77745e-014 1.27222e-014
rhumerus 0.75756 -21.7091 -62.1933
rradius 92.6045
rwrist 40.0995
rhand -37.9225 -57.0023
rfingers 7.12502
rthumb -10.9645 -86.696
lclavicle -7.77745e-014 1.27222e-014
lhumerus -58.962 -34.2572 115.048
lradius 110.678
lwrist 84.5013
lhand 28.5186 759.02
lfingers 7.12502
lthumb 52.3703 -661.097
rfemur -54.2891 -35.8298 8.18689
rtibia 69.9877
rfoot -20.9255 7.19661
rtoes -46.122
lfemur -33.8167 29.2409 -5.9321
ltibia 89.4332
lfoot -40.452 19.7485
ltoes -13.6964
2608
root 3.09034 13.3563 -24.455 180.589 31.1094 -176.759
lowerback 17.408 -0.662627 -3.75126
upperback -0.653162 -1.06549 4.19317
thorax -10.3831 -0.101349 7.04682
lowerneck 6.35781 -15.4808 -15.1359
upperneck -0.896493 -21.6572 16.048
head 2.13395 -11.019 6.53364
rclavicle 3.19546e-014 -2.22639e-014
rhumerus 0.733745 -21.8215 -61.9679
rradius 92.1583
rwrist 39.9267
rhand -37.9543 -56.1161
rfingers 7.12502
rthumb -10.9952 -85.8081
lclavicle 3.19546e-014 -2.22639e-014
lhumerus -59.2144 -34.6458 115.304
lradius 110.467
lwrist 84.7524
lhand 27.9324 756.487
lfingers 7.12502
lthumb 51.8388 -663.312
rfemur -54.5988 -36.0939 8.43589
rtibia 70.3401
rfoot -21.343 7.0656
rtoes -46.4013
lfemur -33.8957 29.5949 -5.6388
ltibia 89.6216
lfoot -40.568 19.4235
ltoes -13.9551
2609
root 3.11411 13.3442 -24.4616 180.516 31.0799 -176.916
lowerback 17.4275 -0.612299 -3.94981
upperback -0.617472 -1.04473 4.16757
thorax -10.3547 -0.0839886 7.1281
lowerneck 6.40449 -15.5497 -15.191
upperneck -0.801017 -21.7679 16.0876
head 2.18231 -11.0753 6.53945
rclavicle 1.03567e-013 -5.725e-014
rhumerus 0.623691 -21.6648 -61.5279
rradius 91.7645
rwrist 39.5884
rhand -37.8627 -56.2536
rfingers 7.12502
rthumb -10.9068 -85.9504
lclavicle 1.03567e-013 -5.725e-014
lhumerus -59.4095 -34.9163 115.462
lradius 110.326
lwrist 85.3109
lhand 27.2471 754.976
lfingers 7.12502
lthumb 51.2158 -664.464
rfemur -54.7768 -36.4749 8.39931
rtibia 70.6578
rfoot -21.7179 7.01669
rtoes -46.6549
lfemur -33.8151 29.797 -5.59648
ltibia 89.7218
lfoot -40.6599 19.2618
ltoes -14.1858
2610
root 3.13731 13.3284 -24.4609 180.585 31.0343 -176.898
lowerback 17.4702 -0.592248 -4.07493
upperback -0.601053 -1.03934 4.20666
thorax -10.359 -0.0726165 7.24522
lowerneck 6.38776 -15.6022 -15.1728
upperneck -0.749548 -21.8396 16.0734
head 2.20747 -11.1097 6.52163
rclavicle -1.47498e-013 -5.08889e-014
rhumerus 0.640737 -21.421 -61.2499
rradius 91.3661
rwrist 39.3177
rhand -37.9473 -56.405
rfingers 7.12502
rthumb -10.9884 -86.0974
lclavicle -1.47498e-013 -5.08889e-014
lhumerus -59.4419 -35.07 115.423
lradius 110.216
lwrist 86.0824
lhand 27.2207 756.109
lfingers 7.12502
lthumb 51.1918 -663.317
rfemur -55.0296 -36.6794 8.54515
rtibia 70.972
rfoot -21.9341 6.90235
rtoes -46.7731
lfemur -33.9243 30.0015 -5.42803
ltibia 89.8749
lfoot -40.6501 19.1365
ltoes -14.455
2611
root 3.15341 13.3183 -24.4608 180.689 30.9241 -176.918
lowerback 17.56 -0.647121 -4.28921
upperback -0.630254 -1.15139 4.27325
thorax -10.4208 -0.108031 7.48034
lowerneck 6.26058 -15.6429 -15.1382
upperneck -0.639731 -21.8854 15.9475
head 2.24803 -11.1256 6.46049
rclavicle 8.61235e-014 7.95139e-015
rhumerus 0.655848 -20.9164 -61.0573
rradius 91.0432
rwrist 39.1718
rhand -37.9959 -56.4942
rfingers 7.12502
rthumb -11.0353 -86.1841
lclavicle 8.61235e-014 7.95139e-015
lhumerus -59.4363 -34.9126 115.278
lradius 110.163
lwrist 86.6984
lhand 26.3064 756.849
lfingers 7.12502
lthumb 50.3578 -662.118
rfemur -55.2796 -36.8884 8.64091
rtibia 71.2412
rfoot -22.1221 6.69997
rtoes -46.9163
lfemur -34.1276 30.0838 -5.42211
ltibia 89.9944
lfoot -40.6278 19.0902
ltoes -14.6414
2612
root 3.17262 13.3089 -24.4628 180.734 30.7865 -176.906
lowerback 17.6047 -0.650334 -4.37957
upperback -0.594887 -1.16993 4.30506
thorax -10.4015 -0.111323 7.57449
lowerneck 6.2604 -15.6686 -15.1697
upperneck -0.743423 -21.9176 16.0721
head 2.24082 -11.1436 6.50002
rclavicle 9.30809e-014 3.57812e-014
rhumerus 0.5344 -20.5746 -60.6444
rradius 90.876
rwrist 38.9756
rhand -38.1888 -56.3568
rfingers 7.12502
rthumb -11.2213 -86.0367
lclavicle 9.30809e-014 3.57812e-014
lhumerus -59.5172 -34.9558 115.229
lradius 110.157
lwrist 87.0925
lhand 25.6169 756.001
lfingers 7.12502
lthumb 49.7269 -662.634
rfemur -55.3791 -37.0989 8.69191
rtibia 71.4761
rfoot -22.3544 6.52494
rtoes -47.0861
lfemur -34.2601 30.1277 -5.36462
ltibia 90.1323
lfoot -40.5792 19.1067
ltoes -14.7491
2613
root 3.19429 13.2965 -24.4622 180.703 30.6246 -176.97
lowerback 17.7082 -0.573791 -4.47516
upperback -0.585578 -1.09156 4.29649
thorax -10.4615 -0.0662468 7.60553
lowerneck 6.43802 -15.721 -15.1665
upperneck -1.08083 -21.984 16.2129
head 2.14011 -11.1888 6.56297
rclavicle 8.73162e-014 -6.83819e-014
rhumerus 0.279615 -20.4868 -60.0671
rradius 90.6878
rwrist 38.8495
rhand -38.0587 -56.5687
rfingers 7.12502
rthumb -11.0959 -86.2553
lclavicle 8.73162e-014 -6.83819e-014
lhumerus -59.6162 -35.0613 115.092
lradius 110.314
lwrist 87.1591
lhand 25.4965 757.728
lfingers 7.12502
lthumb 49.6166 -660.85
rfemur -55.4266 -37.2772 8.61769
rtibia 71.6954
rfoot -22.5082 6.32427
rtoes -47.2379
lfemur -34.3629 30.1033 -5.38449
ltibia 90.2723
lfoot -40.5425 19.1441
ltoes -14.8316
